<svg xmlns="http://www.w3.org/2000/svg" viewBox="0 0 512 512" width="512" height="512">
  <defs>
    <linearGradient id="bg" x1="0" y1="0" x2="1" y2="1">
      <stop offset="0" stop-color="#efe7fb"/>
      <stop offset="1" stop-color="#ffe3ef"/>
    </linearGradient>
    <linearGradient id="h" x1="0" y1="0" x2="1" y2="1">
      <stop offset="0" stop-color="#c084fc"/>
      <stop offset="1" stop-color="#fb7ea8"/>
    </linearGradient>
  </defs>
  <rect width="512" height="512" rx="120" fill="url(#bg)"/>
  <path d="M256 372c-9 0-18-4-24-11-40-42-92-84-92-142 0-42 32-73 71-73 22 0 41 10 45 30 4-20 23-30 45-30 39 0 71 31 71 73 0 58-52 100-92 142-6 7-15 11-24 11z" fill="url(#h)"/>
  <circle cx="256" cy="228" r="26" fill="#fff" opacity="0.55"/>
</svg>
